<svg xmlns="http://www.w3.org/2000/svg" viewBox="205 610 1604 725" fill="currentColor" role="img" aria-label="Prithvi Ventures">
<g class="logo-word" transform="translate(0.000000,2048.000000) scale(0.100000,-0.100000)"><path d="M10540 14334 c-14 -2 -88 -14 -165 -26 -150 -22 -183 -32 -152 -44
47 -18 236 -261 369 -475 302 -484 423 -804 435 -1150 l6 -167 -84 -7 c-46 -3
-358 -5 -694 -3 l-610 3 -3 277 -2 277 -88 49 c-129 72 -487 262 -495 262 -4
0 -7 -193 -7 -429 l0 -428 -67 -6 c-38 -4 -1604 -7 -3480 -7 l-3413 0 0 -235
0 -235 3434 0 c1888 0 3454 -3 3480 -6 l46 -7 0 -946 c0 -589 4 -979 10 -1031
30 -242 123 -459 233 -543 191 -145 530 -204 793 -137 254 65 468 301 558 614
48 166 59 144 -121 235 -87 44 -207 107 -266 141 -60 33 -110 60 -113 60 -2 0
-4 -49 -4 -109 0 -451 -302 -860 -439 -594 -6 12 -21 59 -33 105 -22 83 -22
87 -25 1151 l-4 1067 698 -2 698 -3 3 -1230 2 -1230 248 -124 c136 -68 273
-138 305 -157 32 -19 60 -34 63 -34 2 0 4 325 4 721 l0 721 63 97 c179 272
402 467 630 549 280 101 527 47 625 -136 94 -176 87 -490 -17 -803 -89 -263
-276 -582 -455 -773 -25 -28 -46 -51 -46 -52 0 -2 53 -34 118 -72 64 -39 175
-109 247 -156 71 -47 132 -86 136 -86 25 0 309 399 443 623 221 369 254 573
146 898 -81 243 -204 432 -422 646 -278 273 -476 364 -733 335 -222 -24 -409
-112 -641 -298 -51 -41 -93 -74 -95 -74 -9 0 -3 626 6 632 11 9 4479 11 4510
2 19 -5 20 -10 13 -143 -8 -168 -42 -341 -93 -476 -105 -281 -423 -898 -732
-1424 -94 -159 -90 -158 -126 -46 -25 78 -27 239 -17 960 5 361 1 405 -55 514
-57 114 -265 282 -421 341 -175 65 -485 19 -696 -105 -69 -40 -198 -148 -198
-164 0 -3 28 -26 62 -51 34 -24 126 -97 206 -162 l144 -118 87 83 c148 140
248 196 368 205 114 8 112 2 -77 -258 -140 -192 -175 -285 -173 -465 3 -406
337 -971 728 -1234 151 -102 332 -184 358 -163 24 21 170 239 267 402 300 499
702 1264 815 1549 75 190 99 319 111 594 l7 167 646 0 646 -1 3 236 2 235
-3157 2 c-1737 1 -3171 3 -3188 4 -16 1 -35 3 -41 3 -8 1 -13 57 -17 169 -9
253 -62 478 -188 795 -194 488 -420 787 -662 876 -58 21 -202 35 -257 25z"/>
<path d="M7460 13928 c0 -19 9 -85 20 -146 56 -308 166 -456 422 -562 107 -44
150 -93 219 -252 65 -148 109 -217 178 -281 57 -53 153 -103 218 -113 l41 -6
-19 88 c-138 625 -267 924 -472 1094 -124 103 -353 191 -534 207 -73 6 -73 6
-73 -29z"/>
<path d="M16835 13934 c2 -16 9 -63 15 -104 48 -325 167 -498 412 -601 130
-55 162 -91 239 -267 56 -130 101 -203 162 -263 54 -53 166 -114 231 -125 46
-8 48 -23 -20 256 -91 372 -205 661 -314 797 -142 178 -403 308 -657 330 -73
6 -73 6 -68 -23z"/>
<path d="M6463 11726 c-193 -37 -379 -129 -515 -254 l-58 -54 0 118 0 117
-212 -6 c-116 -4 -253 -7 -305 -7 l-93 0 0 -1073 0 -1072 158 -79 c86 -43 222
-112 302 -154 80 -43 148 -78 153 -80 4 -2 7 343 7 767 l0 771 46 92 c98 196
221 367 345 482 262 242 578 289 693 102 44 -70 44 -167 1 -245 -53 -96 -213
-198 -392 -251 -46 -14 -83 -28 -83 -32 0 -4 53 -79 118 -165 65 -87 139 -188
165 -224 67 -94 62 -92 148 -68 505 142 675 575 384 984 -103 145 -261 258
-440 315 -90 28 -312 37 -422 16z"/>
<path d="M8100 11730 l-275 -5 -3 -1116 c-2 -886 1 -1119 10 -1127 20 -15 537
-282 548 -282 12 0 14 2527 3 2532 -5 2 -132 1 -283 -2z"/>
<path d="M17417 11733 l-217 -3 2 -1126 3 -1126 268 -139 c147 -76 272 -139
277 -139 7 0 9 448 8 1268 l-3 1267 -60 0 c-33 1 -158 -1 -278 -2z"/>
<path d="M3783 11720 c-247 -27 -511 -213 -726 -513 -62 -85 -127 -201 -148
-259 -7 -21 -15 -38 -19 -38 -3 0 -5 39 -6 88 0 48 -1 210 -2 360 l-2 272
-270 0 -270 0 0 -1893 0 -1892 261 -135 c144 -74 265 -136 270 -138 5 -2 9
476 9 1167 0 723 4 1171 9 1171 6 0 41 -40 78 -89 284 -369 493 -519 765 -547
315 -32 768 224 1006 569 268 388 256 812 -35 1251 -99 149 -335 429 -425 502
-123 102 -296 145 -495 124z m495 -481 c235 -50 342 -341 238 -646 -48 -142
-130 -266 -271 -412 -152 -158 -309 -261 -475 -313 -229 -71 -587 23 -695 183
-44 65 -48 168 -10 265 69 174 218 390 384 554 291 289 588 421 829 369z"/></g>
<g class="logo-ventures" transform="translate(0.000000,2048.000000) scale(0.100000,-0.100000)"><path d="M5920 8421 c0 -6 21 -13 48 -17 65 -9 98 -28 126 -73 29 -45 170
-353 316 -691 154 -354 161 -371 168 -420 7 -42 9 -45 37 -45 29 0 32 5 122
210 51 116 161 374 245 575 83 201 162 379 174 397 25 32 54 43 127 47 23 1
42 6 42 12 0 5 -110 10 -267 12 -234 2 -268 0 -268 -13 0 -13 21 -15 134 -15
74 0 141 -3 150 -6 39 -15 12 -94 -204 -599 -54 -126 -106 -248 -115 -270
l-16 -40 -14 25 c-7 14 -47 104 -88 200 -42 96 -125 288 -185 425 -60 138
-108 253 -105 258 2 4 44 7 94 7 72 0 89 3 89 15 0 13 -41 15 -305 15 -183 0
-305 -4 -305 -9z"/>
<path d="M9746 8077 c-11 -44 -214 -227 -252 -227 -28 0 -13 -19 20 -25 l34
-7 4 -291 c3 -204 8 -302 17 -324 l13 -33 90 0 c88 0 89 0 81 23 -4 12 -8 157
-8 322 l0 300 94 5 c126 7 132 25 11 32 -51 3 -96 10 -102 16 -10 10 0 121 18
205 8 33 -11 37 -20 4z"/>
<path d="M7608 7870 c-117 -20 -227 -103 -274 -204 -67 -146 -52 -333 36 -455
l30 -41 75 0 74 0 -24 36 c-38 56 -65 175 -65 287 l0 57 285 0 285 0 -6 28
c-38 177 -146 279 -314 295 -30 3 -76 1 -102 -3z m158 -56 c40 -30 64 -65 84
-125 31 -89 32 -89 -192 -89 l-191 0 5 49 c7 66 45 141 88 169 30 21 45 23
107 20 53 -2 79 -9 99 -24z"/>
<path d="M8420 7864 c-41 -8 -103 -15 -137 -16 -35 -2 -63 -5 -63 -8 0 -3 20
-11 45 -18 27 -7 49 -20 57 -34 10 -17 13 -96 13 -320 l0 -298 105 0 105 0 0
213 c0 148 4 223 13 248 17 48 107 133 174 164 71 33 152 34 199 2 60 -40 68
-84 69 -374 l0 -253 101 0 101 0 -5 228 c-5 252 -14 300 -67 365 -120 144
-347 133 -524 -24 -30 -27 -57 -46 -59 -42 -3 5 -8 47 -12 96 -8 99 2 93 -115
71z"/>
<path d="M11805 7869 c-22 -4 -92 -13 -155 -20 l-115 -13 48 -14 c82 -23 82
-22 82 -359 l0 -293 108 0 c76 0 106 3 101 11 -13 22 -6 267 10 321 20 70 76
162 134 221 46 47 130 97 162 97 27 0 47 -30 64 -94 16 -63 38 -93 71 -96 47
-5 68 2 96 29 52 52 34 138 -38 183 -57 35 -158 33 -235 -5 -75 -37 -157 -113
-210 -193 -41 -62 -43 -64 -50 -39 -4 15 -11 81 -17 147 -6 66 -12 121 -13
122 -2 2 -21 -1 -43 -5z"/>
<path d="M12899 7847 c-69 -29 -107 -55 -149 -104 -121 -137 -126 -405 -10
-537 31 -35 34 -36 101 -36 l70 0 -25 43 c-34 58 -56 156 -56 255 l0 82 281 0
c262 0 280 1 275 18 -3 9 -8 31 -12 47 -21 90 -84 171 -166 215 -57 31 -72 35
-158 37 -82 3 -103 0 -151 -20z m234 -40 c45 -34 90 -123 85 -169 l-3 -33
-194 -3 -193 -2 6 47 c11 74 49 145 93 171 55 33 156 28 206 -11z"/>
<path d="M13694 7836 c-95 -44 -146 -139 -123 -231 14 -56 71 -122 153 -178
128 -87 186 -157 186 -227 0 -29 1 -30 50 -30 l50 0 0 128 c0 151 8 139 -156
245 -115 74 -154 119 -154 180 0 55 52 107 107 107 69 0 157 -53 191 -115 9
-16 11 -9 12 42 0 56 -2 61 -19 56 -11 -3 -49 7 -84 21 -83 33 -145 34 -213 2z"/>
<path d="M10255 7840 c3 -5 17 -10 29 -10 13 0 34 -9 47 -19 24 -19 24 -21 29
-283 5 -241 8 -267 27 -310 l22 -48 87 0 c85 0 86 0 78 23 -4 12 -9 148 -11
302 -4 274 -4 282 17 308 15 18 31 27 51 27 16 0 29 5 29 10 0 6 -75 10 -206
10 -134 0 -203 -3 -199 -10z"/>
<path d="M10900 7841 c0 -4 19 -11 42 -14 77 -10 78 -15 78 -286 0 -130 -5
-252 -10 -273 -6 -20 -25 -50 -42 -67 -31 -30 -31 -31 -8 -31 13 0 32 7 42 17
17 15 18 15 18 0 0 -15 14 -17 105 -17 l105 0 0 289 c0 184 4 299 11 320 13
36 35 51 78 51 17 0 31 5 31 10 0 6 -82 10 -225 10 -124 0 -225 -4 -225 -9z"/>
<path d="M13520 7253 l0 -83 35 0 c19 0 35 1 35 3 0 1 -11 24 -25 51 -14 27
-25 57 -25 65 0 9 -5 23 -10 31 -7 10 -10 -11 -10 -67z"/></g>
</svg>